#Comment line ignore any data following # character 
#Hierarchical Translation and Rotation (.htr) file 
[Header]	
#Header keywords are followed by a single value 
FileType HTR		#Single word string
DataType HTRS		#Translation followed by rotation and scale data
FileVersion 1		#integer
NumSegments 84		#integer
NumFrames 2		#integer
DataFrameRate 30		#integer, data frame rate in this file
EulerRotationOrder ZYX
CalibrationUnits mm
RotationUnits Degrees
GlobalAxisofGravity Y
BoneLengthAxis Y
ScaleFactor 1.00
[SegmentNames&Hierarchy]
#CHILD	PARENT
MASTER GLOBAL
root MASTER
chest root
L_mid_tent01 root
R_mid_tent01 root
spine01 root
Bip01_Neck chest
L_humerus chest
R_humerus chest
weapon_bone chest
Bip01_Head Bip01_Neck
eye_left_bone Bip01_Head
eye_right_bone Bip01_Head
L_forearm L_humerus
L_front_hand L_forearm
L_weapon_bone L_forearm
L_front_hand01_01 L_front_hand
L_front_hand02_01 L_front_hand
L_front_hand03_01 L_front_hand
L_front_hand01_02 L_front_hand01_01
L_front_hand02_02 L_front_hand02_01
L_front_hand03_02 L_front_hand03_01
R_forearm R_humerus
R_front_hand R_forearm
R_weapon_bone R_forearm
R_front_hand01_01 R_front_hand
R_front_hand02_01 R_front_hand
R_front_hand03_01 R_front_hand
R_front_hand01_02 R_front_hand01_01
R_front_hand02_02 R_front_hand02_01
R_front_hand03_02 R_front_hand03_01
null_rope01_connect L_mid_tent01
Rope1_Seg01 null_rope01_connect
Rope1_Seg02 Rope1_Seg01
Rope1_Seg03 Rope1_Seg02
Rope1_Seg04 Rope1_Seg03
Rope1_Seg05 Rope1_Seg04
Rope1_Seg06 Rope1_Seg05
Rope1_Seg07 Rope1_Seg06
Rope1_Seg09 Rope1_Seg07
L_mid_hand01 Rope1_Seg09
L_mid_hand02 Rope1_Seg09
L_mid_hand03 Rope1_Seg09
null_rope02_connect R_mid_tent01
Rope2_Seg01 null_rope02_connect
Rope2_Seg02 Rope2_Seg01
Rope2_Seg03 Rope2_Seg02
Rope2_Seg04 Rope2_Seg03
Rope2_Seg05 Rope2_Seg04
Rope2_Seg06 Rope2_Seg05
Rope2_Seg07 Rope2_Seg06
Rope2_Seg09 Rope2_Seg07
R_mid_hand01 Rope2_Seg09
R_mid_hand02 Rope2_Seg09
R_mid_hand03 Rope2_Seg09
spine02 spine01
spine03 spine02
pelvis spine03
null_rope03_connect pelvis
null_rope04_connect pelvis
Rope3_Seg01 null_rope03_connect
Rope3_Seg02 Rope3_Seg01
Rope3_Seg03 Rope3_Seg02
Rope3_Seg04 Rope3_Seg03
Rope3_Seg05 Rope3_Seg04
Rope3_Seg06 Rope3_Seg05
Rope3_Seg07 Rope3_Seg06
Rope3_Seg08 Rope3_Seg07
Rope3_Seg09 Rope3_Seg08
R_rear_hand01 Rope3_Seg09
R_rear_hand02 Rope3_Seg09
R_rear_hand03 Rope3_Seg09
Rope4_Seg01 null_rope04_connect
Rope4_Seg02 Rope4_Seg01
Rope4_Seg03 Rope4_Seg02
Rope4_Seg04 Rope4_Seg03
Rope4_Seg05 Rope4_Seg04
Rope4_Seg06 Rope4_Seg05
Rope4_Seg07 Rope4_Seg06
Rope4_Seg08 Rope4_Seg07
Rope4_Seg09 Rope4_Seg08
L_rear_hand01 Rope4_Seg09
L_rear_hand02 Rope4_Seg09
L_rear_hand03 Rope4_Seg09
[BasePosition]
#SegmentName Tx, Ty, Tz, Rx, Ry, Rz, BoneLength
MASTER 0.000000 0.000000 0.000000 -90.000000 0.000000 0.000000 10.000000 
root 0.000000 0.000000 0.000000 0.000000 0.000000 0.000000 10.000000 
chest 0.000000 0.000000 0.000000 0.000000 0.000000 0.000000 10.000000 
L_mid_tent01 0.000000 0.000000 0.000000 0.000000 0.000000 0.000000 10.000000 
R_mid_tent01 0.000000 0.000000 0.000000 0.000000 0.000000 0.000000 10.000000 
spine01 0.000000 0.000000 0.000000 0.000000 0.000000 0.000000 10.000000 
Bip01_Neck 0.000000 0.000000 0.000000 0.000000 0.000000 0.000000 10.000000 
L_humerus 0.000000 0.000000 0.000000 0.000000 0.000000 0.000000 10.000000 
R_humerus 0.000000 0.000000 0.000000 0.000000 0.000000 0.000000 10.000000 
weapon_bone 0.000000 0.000000 0.000000 0.000000 0.000000 0.000000 10.000000 
Bip01_Head 0.000000 0.000000 0.000000 0.000000 0.000000 0.000000 10.000000 
eye_left_bone 0.000000 0.000000 0.000000 0.000000 0.000000 0.000000 10.000000 
eye_right_bone 0.000000 0.000000 0.000000 0.000000 0.000000 0.000000 10.000000 
L_forearm 0.000000 0.000000 0.000000 0.000000 0.000000 0.000000 10.000000 
L_front_hand 0.000000 0.000000 0.000000 0.000000 0.000000 0.000000 10.000000 
L_weapon_bone 0.000000 0.000000 0.000000 0.000000 0.000000 0.000000 10.000000 
L_front_hand01_01 0.000000 0.000000 0.000000 0.000000 0.000000 0.000000 10.000000 
L_front_hand02_01 0.000000 0.000000 0.000000 0.000000 0.000000 0.000000 10.000000 
L_front_hand03_01 0.000000 0.000000 0.000000 0.000000 0.000000 0.000000 10.000000 
L_front_hand01_02 0.000000 0.000000 0.000000 0.000000 0.000000 0.000000 10.000000 
L_front_hand02_02 0.000000 0.000000 0.000000 0.000000 0.000000 0.000000 10.000000 
L_front_hand03_02 0.000000 0.000000 0.000000 0.000000 0.000000 0.000000 10.000000 
R_forearm 0.000000 0.000000 0.000000 0.000000 0.000000 0.000000 10.000000 
R_front_hand 0.000000 0.000000 0.000000 0.000000 0.000000 0.000000 10.000000 
R_weapon_bone 0.000000 0.000000 0.000000 0.000000 0.000000 0.000000 10.000000 
R_front_hand01_01 0.000000 0.000000 0.000000 0.000000 0.000000 0.000000 10.000000 
R_front_hand02_01 0.000000 0.000000 0.000000 0.000000 0.000000 0.000000 10.000000 
R_front_hand03_01 0.000000 0.000000 0.000000 0.000000 0.000000 0.000000 10.000000 
R_front_hand01_02 0.000000 0.000000 0.000000 0.000000 0.000000 0.000000 10.000000 
R_front_hand02_02 0.000000 0.000000 0.000000 0.000000 0.000000 0.000000 10.000000 
R_front_hand03_02 0.000000 0.000000 0.000000 0.000000 0.000000 0.000000 10.000000 
null_rope01_connect 0.000000 0.000000 0.000000 0.000000 0.000000 0.000000 10.000000 
Rope1_Seg01 0.000000 0.000000 0.000000 0.000000 0.000000 0.000000 10.000000 
Rope1_Seg02 0.000000 0.000000 0.000000 0.000000 0.000000 0.000000 10.000000 
Rope1_Seg03 0.000000 0.000000 0.000000 0.000000 0.000000 0.000000 10.000000 
Rope1_Seg04 0.000000 0.000000 0.000000 0.000000 0.000000 0.000000 10.000000 
Rope1_Seg05 0.000000 0.000000 0.000000 0.000000 0.000000 0.000000 10.000000 
Rope1_Seg06 0.000000 0.000000 0.000000 0.000000 0.000000 0.000000 10.000000 
Rope1_Seg07 0.000000 0.000000 0.000000 0.000000 0.000000 0.000000 10.000000 
Rope1_Seg09 0.000000 0.000000 0.000000 0.000000 0.000000 0.000000 10.000000 
L_mid_hand01 0.000000 0.000000 0.000000 0.000000 0.000000 0.000000 10.000000 
L_mid_hand02 0.000000 0.000000 0.000000 0.000000 0.000000 0.000000 10.000000 
L_mid_hand03 0.000000 0.000000 0.000000 0.000000 0.000000 0.000000 10.000000 
null_rope02_connect 0.000000 0.000000 0.000000 0.000000 0.000000 0.000000 10.000000 
Rope2_Seg01 0.000000 0.000000 0.000000 0.000000 0.000000 0.000000 10.000000 
Rope2_Seg02 0.000000 0.000000 0.000000 0.000000 0.000000 0.000000 10.000000 
Rope2_Seg03 0.000000 0.000000 0.000000 0.000000 0.000000 0.000000 10.000000 
Rope2_Seg04 0.000000 0.000000 0.000000 0.000000 0.000000 0.000000 10.000000 
Rope2_Seg05 0.000000 0.000000 0.000000 0.000000 0.000000 0.000000 10.000000 
Rope2_Seg06 0.000000 0.000000 0.000000 0.000000 0.000000 0.000000 10.000000 
Rope2_Seg07 0.000000 0.000000 0.000000 0.000000 0.000000 0.000000 10.000000 
Rope2_Seg09 0.000000 0.000000 0.000000 0.000000 0.000000 0.000000 10.000000 
R_mid_hand01 0.000000 0.000000 0.000000 0.000000 0.000000 0.000000 10.000000 
R_mid_hand02 0.000000 0.000000 0.000000 0.000000 0.000000 0.000000 10.000000 
R_mid_hand03 0.000000 0.000000 0.000000 0.000000 0.000000 0.000000 10.000000 
spine02 0.000000 0.000000 0.000000 0.000000 0.000000 0.000000 10.000000 
spine03 0.000000 0.000000 0.000000 0.000000 0.000000 0.000000 10.000000 
pelvis 0.000000 0.000000 0.000000 0.000000 0.000000 0.000000 10.000000 
null_rope03_connect 0.000000 0.000000 0.000000 0.000000 0.000000 0.000000 10.000000 
null_rope04_connect 0.000000 0.000000 0.000000 0.000000 0.000000 0.000000 10.000000 
Rope3_Seg01 0.000000 0.000000 0.000000 0.000000 0.000000 0.000000 10.000000 
Rope3_Seg02 0.000000 0.000000 0.000000 0.000000 0.000000 0.000000 10.000000 
Rope3_Seg03 0.000000 0.000000 0.000000 0.000000 0.000000 0.000000 10.000000 
Rope3_Seg04 0.000000 0.000000 0.000000 0.000000 0.000000 0.000000 10.000000 
Rope3_Seg05 0.000000 0.000000 0.000000 0.000000 0.000000 0.000000 10.000000 
Rope3_Seg06 0.000000 0.000000 0.000000 0.000000 0.000000 0.000000 10.000000 
Rope3_Seg07 0.000000 0.000000 0.000000 0.000000 0.000000 0.000000 10.000000 
Rope3_Seg08 0.000000 0.000000 0.000000 0.000000 0.000000 0.000000 10.000000 
Rope3_Seg09 0.000000 0.000000 0.000000 0.000000 0.000000 0.000000 10.000000 
R_rear_hand01 0.000000 0.000000 0.000000 0.000000 0.000000 0.000000 10.000000 
R_rear_hand02 0.000000 0.000000 0.000000 0.000000 0.000000 0.000000 10.000000 
R_rear_hand03 0.000000 0.000000 0.000000 0.000000 0.000000 0.000000 10.000000 
Rope4_Seg01 0.000000 0.000000 0.000000 0.000000 0.000000 0.000000 10.000000 
Rope4_Seg02 0.000000 0.000000 0.000000 0.000000 0.000000 0.000000 10.000000 
Rope4_Seg03 0.000000 0.000000 0.000000 0.000000 0.000000 0.000000 10.000000 
Rope4_Seg04 0.000000 0.000000 0.000000 0.000000 0.000000 0.000000 10.000000 
Rope4_Seg05 0.000000 0.000000 0.000000 0.000000 0.000000 0.000000 10.000000 
Rope4_Seg06 0.000000 0.000000 0.000000 0.000000 0.000000 0.000000 10.000000 
Rope4_Seg07 0.000000 0.000000 0.000000 0.000000 0.000000 0.000000 10.000000 
Rope4_Seg08 0.000000 0.000000 0.000000 0.000000 0.000000 0.000000 10.000000 
Rope4_Seg09 0.000000 0.000000 0.000000 0.000000 0.000000 0.000000 10.000000 
L_rear_hand01 0.000000 0.000000 0.000000 0.000000 0.000000 0.000000 10.000000 
L_rear_hand02 0.000000 0.000000 0.000000 0.000000 0.000000 0.000000 10.000000 
L_rear_hand03 0.000000 0.000000 0.000000 0.000000 0.000000 0.000000 10.000000 
#Beginning of Data. Separated by tabs
#Fr	Tx	Ty	Tz	Rx	Ry	Rz	SF
[MASTER]
59 0.000000 0.000000 0.000000 0.001660 0.001660 0.001660 0.000000
60 0.000000 0.000000 0.000000 0.001660 0.001660 0.001660 0.000000
[root]
59 -31.860989 -62.547661 1565.581421 -108.622375 22.994953 -90.428398 1567.154297
60 -31.452578 -63.172661 1561.588013 -108.647156 23.193024 -90.495338 1563.181763
[chest]
59 -86.836586 -33.005978 -30.127222 -2.145468 -9.217001 -178.910614 97.660828
60 -86.836586 -33.005978 -30.127222 -2.145468 -9.217001 -178.910614 97.660828
[L_mid_tent01]
59 27.299463 22.177580 -249.918289 -8.045874 4.793894 68.903275 252.381180
60 27.299461 22.177580 -249.918289 -8.527295 5.194446 68.536537 252.381180
[R_mid_tent01]
59 23.228794 24.509907 226.238495 -176.140793 -10.379772 66.016167 228.744751
60 23.228794 24.509907 226.238495 -176.144623 -10.071887 66.038834 228.744751
[spine01]
59 -0.361383 -0.195265 0.000000 -0.000001 -0.000007 22.052340 0.410763
60 -0.361383 -0.195265 0.000000 -0.000001 -0.000007 22.052340 0.410763
[Bip01_Neck]
59 165.484543 71.581718 0.000119 175.896118 1.177290 24.871183 180.302734
60 165.484543 71.581718 0.000119 175.896118 1.177290 24.871183 180.302734
[L_humerus]
59 -13.983130 -135.272980 -120.471481 -168.517593 36.033752 -113.483025 181.680161
60 -13.983130 -135.272980 -120.471481 -168.517593 36.033752 -113.483025 181.680161
[R_humerus]
59 -13.983309 -135.273102 125.287651 -179.588654 -28.895136 -122.030510 184.909012
60 -13.983309 -135.273102 125.287651 -179.588654 -28.895136 -122.030510 184.909012
[weapon_bone]
59 235.964890 -300.705902 0.000000 0.000000 -89.951546 -128.212341 382.234833
60 235.964890 -300.705902 0.000000 0.000000 -89.951546 -128.212341 382.234833
[Bip01_Head]
59 189.519806 179.130310 22.124935 -23.626308 5.787232 14.654977 261.715363
60 189.519806 179.130310 22.124937 -23.626308 5.787232 14.654977 261.715363
[eye_left_bone]
59 -24.626970 125.451866 -64.772606 0.000000 -90.000000 -99.840431 143.318359
60 -24.626970 125.451866 -64.772606 0.000000 -90.000000 -99.840431 143.318359
[eye_right_bone]
59 -24.626970 125.451866 64.327362 0.000000 -89.965736 80.156380 143.117676
60 -24.626970 125.451866 64.327362 0.000000 -89.965736 80.156380 143.117676
[L_forearm]
59 322.776093 0.000000 -0.000119 0.000017 0.002347 -89.149834 322.776093
60 322.776093 0.000000 -0.000119 0.000017 0.002347 -89.149834 322.776093
[L_front_hand]
59 241.149185 -0.042021 -3.300071 -179.659958 -2.242151 -0.019832 241.171753
60 241.149185 -0.042021 -3.300071 -179.659958 -2.242151 -0.019832 241.171753
[L_weapon_bone]
59 156.183838 0.000000 0.000000 0.000014 0.000007 0.000001 156.183838
60 156.183838 0.000000 0.000000 0.000014 0.000007 0.000001 156.183838
[L_front_hand01_01]
59 86.095154 20.947098 -0.655860 -0.366594 -0.477154 75.385574 88.609184
60 86.095154 20.947098 -0.655860 -0.366594 -0.477154 75.385574 88.609184
[L_front_hand02_01]
59 86.935165 -11.437475 24.513514 154.399796 -59.883835 -61.369587 91.046425
60 86.935165 -11.437475 24.513514 154.399796 -59.883835 -61.369587 91.046425
[L_front_hand03_01]
59 86.637497 -14.123976 -20.424902 -153.913849 58.118122 -62.702866 90.126129
60 86.637497 -14.123976 -20.424902 -153.913849 58.118122 -62.702866 90.126129
[L_front_hand01_02]
59 71.020905 -0.000179 0.000030 0.000334 -0.002323 -106.379684 71.020905
60 71.020905 -0.000179 0.000030 0.000334 -0.002323 -106.379684 71.020905
[L_front_hand02_02]
59 71.020927 -0.000119 0.000060 0.000334 -0.002323 -106.379684 71.020927
60 71.020927 -0.000119 0.000060 0.000334 -0.002323 -106.379684 71.020927
[L_front_hand03_02]
59 71.020905 -0.000060 0.000060 0.000334 -0.002323 -106.379684 71.020905
60 71.020905 -0.000060 0.000060 0.000334 -0.002323 -106.379684 71.020905
[R_forearm]
59 322.776428 -0.000060 0.000030 0.213197 0.007525 -93.425262 322.776428
60 322.776428 -0.000060 0.000030 0.213197 0.007525 -93.425262 322.776428
[R_front_hand]
59 238.847015 -0.006795 2.210259 -0.270529 1.703932 2.322530 238.857239
60 238.847015 -0.006795 2.210259 -0.270529 1.703932 2.322530 238.857239
[R_weapon_bone]
59 155.664093 0.002503 -0.000030 0.003487 0.001180 -90.988930 155.664078
60 155.664093 0.002503 -0.000030 0.003487 0.001180 -90.988930 155.664078
[R_front_hand01_01]
59 87.624611 14.231146 22.918642 -154.633499 -59.950619 61.746044 91.683487
60 87.624611 14.231146 22.918642 -154.633499 -59.950619 61.746044 91.683487
[R_front_hand02_01]
59 89.356956 14.367283 -19.491137 154.602661 58.302849 63.744389 92.579636
60 89.356956 14.367283 -19.491137 154.602661 58.302849 63.744389 92.579636
[R_front_hand03_01]
59 87.286232 -22.307278 -0.143439 0.162155 -0.423168 -75.767921 90.091743
60 87.286232 -22.307278 -0.143439 0.162155 -0.423168 -75.767921 90.091743
[R_front_hand01_02]
59 71.020905 0.000060 0.000119 0.002323 -0.000334 106.381714 71.020905
60 71.020905 0.000060 0.000119 0.002323 -0.000334 106.381714 71.020905
[R_front_hand02_02]
59 71.020844 -0.000030 -0.000119 0.002323 -0.000334 106.381714 71.020836
60 71.020844 -0.000030 -0.000119 0.002323 -0.000334 106.381714 71.020836
[R_front_hand03_02]
59 71.020905 0.000000 0.000030 0.002323 -0.000334 106.381714 71.020905
60 71.020905 0.000000 0.000030 0.002323 -0.000334 106.381714 71.020905
[null_rope01_connect]
59 328.732483 0.000000 -0.000238 144.686996 -63.654114 -147.972610 328.732483
60 328.732483 0.000000 -0.000238 144.291183 -63.067604 -147.508835 328.732483
[Rope1_Seg01]
59 0.000000 0.000000 0.000000 174.392715 52.826408 -152.834335 0.000000
60 0.000000 0.000000 0.000000 170.463074 51.652039 -155.005295 0.000000
[Rope1_Seg02]
59 139.999863 -0.000179 0.000000 12.189340 -2.174202 -9.423617 139.999863
60 139.999863 -0.000179 0.000000 12.385958 -2.002422 -9.854512 139.999863
[Rope1_Seg03]
59 139.999924 0.000060 -0.000060 21.770512 -6.086073 -11.638725 139.999924
60 139.999924 0.000060 -0.000060 22.812998 -6.029156 -12.322381 139.999924
[Rope1_Seg04]
59 139.999924 -0.000060 -0.000119 27.272747 -13.342354 -11.019492 139.999924
60 139.999924 -0.000060 -0.000119 28.986883 -14.061389 -11.733501 139.999924
[Rope1_Seg05]
59 139.999832 0.000119 -0.000060 -0.210263 3.904368 -4.326624 139.999832
60 139.999832 0.000119 -0.000060 0.136655 3.699772 -4.403917 139.999832
[Rope1_Seg06]
59 139.999954 0.000119 -0.000060 -6.301947 5.901536 -2.401746 139.999954
60 139.999954 0.000119 -0.000060 -7.076754 6.486242 -2.598603 139.999954
[Rope1_Seg07]
59 139.999985 0.000060 0.000000 -1.012483 1.633043 -1.222185 139.999985
60 139.999985 0.000060 0.000000 -1.234238 1.759142 -1.239113 139.999985
[Rope1_Seg09]
59 121.602913 0.000119 -0.000089 -89.793175 -1.359789 0.847147 121.602913
60 121.602913 0.000119 -0.000089 -89.793175 -1.359789 0.847147 121.602913
[L_mid_hand01]
59 103.859421 1.038730 8.195221 106.855484 -31.239275 -9.461397 104.187431
60 103.859421 1.038730 8.195221 106.855484 -31.239275 -9.461397 104.187431
[L_mid_hand02]
59 105.572853 -4.139662 -10.864139 -142.331345 25.752670 -28.774628 106.211075
60 105.572853 -4.139662 -10.864139 -142.331345 25.752670 -28.774628 106.211075
[L_mid_hand03]
59 104.641464 17.579376 -3.913581 -16.122810 9.734291 34.223598 106.179977
60 104.641464 17.579376 -3.913581 -16.122810 9.734291 34.223598 106.179977
[null_rope02_connect]
59 328.732849 0.000179 -0.000119 -25.139072 82.588890 154.360916 328.732849
60 328.732849 0.000179 -0.000119 -23.821016 82.308464 155.871613 328.732849
[Rope2_Seg01]
59 0.000076 0.000112 0.000153 17.652143 83.111313 130.627594 0.000204
60 0.000076 0.000112 0.000153 18.522297 82.851006 131.520767 0.000204
[Rope2_Seg02]
59 139.999741 -0.000060 -0.000119 -2.002059 9.999677 5.041895 139.999756
60 139.999741 -0.000060 -0.000119 -1.969552 10.072057 5.008955 139.999756
[Rope2_Seg03]
59 140.000107 0.000030 0.000000 -5.714593 16.169199 9.521216 140.000107
60 140.000107 0.000030 0.000000 -5.704232 16.361998 9.490219 140.000107
[Rope2_Seg04]
59 139.999802 0.000000 -0.000060 -10.266579 15.975807 11.873907 139.999802
60 139.999802 0.000000 -0.000060 -10.265532 16.044142 11.757843 139.999802
[Rope2_Seg05]
59 139.999985 -0.000060 0.000119 1.809523 -0.332188 -2.460448 139.999985
60 139.999985 -0.000060 0.000119 1.775384 -0.367015 -2.388315 139.999985
[Rope2_Seg06]
59 139.999893 -0.000030 -0.000119 -0.071560 0.649383 -0.265819 139.999893
60 139.999893 -0.000030 -0.000119 -0.142856 0.683944 -0.182186 139.999893
[Rope2_Seg07]
59 139.999893 0.000060 -0.000060 -0.422516 0.711240 0.186979 139.999893
60 139.999893 0.000060 -0.000060 -0.447051 0.717989 0.216476 139.999893
[Rope2_Seg09]
59 121.338966 0.000089 -0.000060 33.793236 -1.359788 -0.847141 121.338966
60 121.338966 0.000089 -0.000060 33.793236 -1.359788 -0.847141 121.338966
[R_mid_hand01]
59 104.680779 11.144459 -10.335981 -41.523792 25.424656 28.595957 105.778534
60 104.680779 11.144459 -10.335981 -41.523792 25.424656 28.595957 105.778534
[R_mid_hand02]
59 104.070427 2.443552 8.231699 72.847389 -32.746803 10.013901 104.424065
60 104.070427 2.443552 8.231699 72.847389 -32.746803 10.013901 104.424065
[R_mid_hand03]
59 106.028137 -11.221827 -5.996406 -167.901306 10.259192 -37.009720 106.788818
60 106.028137 -11.221827 -5.996406 -167.901306 10.259192 -37.009720 106.788818
[spine02]
59 129.756927 0.001550 0.000119 -0.245322 -4.052060 -4.355547 129.756927
60 129.756927 0.001550 0.000119 -0.245322 -4.052060 -4.355547 129.756927
[spine03]
59 78.613846 0.087372 -4.898873 0.207412 -2.089717 -0.432471 78.766380
60 78.613846 0.087372 -4.898873 0.207412 -2.089717 -0.432471 78.766380
[pelvis]
59 169.435242 0.051022 0.000000 -0.010007 -0.191417 -1.897554 169.435257
60 169.435242 0.051022 0.000000 -0.010007 -0.191417 -1.897554 169.435257
[null_rope03_connect]
59 -1.257226 -2.466202 137.391083 137.794205 -72.501122 -87.202362 137.418976
60 -1.257226 -2.466202 137.391083 137.776337 -72.528587 -87.389915 137.418976
[null_rope04_connect]
59 -1.259640 -2.480268 -137.844437 137.794205 -72.501122 -87.202362 137.872513
60 -1.259640 -2.480268 -137.844437 137.776337 -72.528587 -87.389915 137.872513
[Rope3_Seg01]
59 0.000000 0.000000 0.000000 148.538239 76.612518 -144.627243 0.000000
60 0.000000 0.000000 0.000000 147.107407 76.248856 -146.016846 0.000000
[Rope3_Seg02]
59 139.999924 -0.000119 0.000060 6.233670 11.249700 -2.624181 139.999924
60 139.999924 -0.000119 0.000060 6.446476 11.419647 -2.532058 139.999924
[Rope3_Seg03]
59 139.999924 -0.000119 0.000119 11.619039 18.033821 -5.201242 139.999924
60 139.999924 -0.000119 0.000119 12.078258 18.276861 -5.073601 139.999924
[Rope3_Seg04]
59 139.999924 0.000119 0.000000 15.240751 21.523874 -11.164482 139.999924
60 139.999924 0.000119 0.000000 15.732093 21.547844 -11.125694 139.999924
[Rope3_Seg05]
59 139.999924 -0.000238 0.000060 -3.384607 -11.378286 -4.306458 139.999924
60 139.999924 -0.000238 0.000060 -3.294736 -11.291191 -4.645923 139.999924
[Rope3_Seg06]
59 139.999893 -0.000119 -0.000060 -2.440357 -11.262530 -2.104045 139.999893
60 139.999893 -0.000119 -0.000060 -2.425079 -11.273073 -2.358908 139.999893
[Rope3_Seg07]
59 139.999771 0.000060 -0.000119 -0.037436 -4.754481 -2.516507 139.999771
60 139.999771 0.000060 -0.000119 -0.016086 -4.749224 -2.675829 139.999771
[Rope3_Seg08]
59 139.999985 -0.000060 0.000000 0.289036 -2.937697 -1.559258 139.999985
60 139.999985 -0.000060 0.000000 0.301402 -2.932356 -1.658517 139.999985
[Rope3_Seg09]
59 90.185997 -0.000179 -0.000060 89.793228 -1.359877 -0.847183 90.185997
60 90.185997 -0.000179 -0.000060 89.793228 -1.359877 -0.847183 90.185997
[R_rear_hand01]
59 103.366196 -6.073594 -10.757982 -161.551193 16.666374 -30.088671 104.101845
60 103.366196 -6.073594 -10.757982 -161.551193 16.666374 -30.088671 104.101845
[R_rear_hand02]
59 100.509819 12.039542 -7.992327 -34.280552 19.289745 28.875523 101.543350
60 100.509819 12.039542 -7.992327 -34.280552 19.289745 28.875523 101.543350
[R_rear_hand03]
59 101.539970 5.215704 5.435467 83.366440 -30.933914 7.284830 101.819031
60 101.539970 5.215704 5.435467 83.366440 -30.933914 7.284830 101.819031
[Rope4_Seg01]
59 0.000010 0.000038 -0.000114 -7.353641 62.435478 -171.912338 0.000121
60 0.000010 0.000038 -0.000114 -8.407492 63.206463 -172.966049 0.000121
[Rope4_Seg02]
59 139.999985 0.000060 0.000119 1.514216 -3.523650 11.922404 139.999985
60 139.999985 0.000060 0.000119 1.412863 -3.940108 11.871914 139.999985
[Rope4_Seg03]
59 139.999924 0.000000 -0.000238 0.998455 -5.349018 17.561617 139.999924
60 139.999924 0.000000 -0.000238 0.970773 -5.873198 17.402056 139.999924
[Rope4_Seg04]
59 139.999985 0.000000 0.000119 -0.306735 -6.014409 20.119019 139.999985
60 139.999985 0.000000 0.000119 -0.180463 -6.762383 20.246721 139.999985
[Rope4_Seg05]
59 139.999802 -0.000060 -0.000119 0.142779 7.105194 -3.235580 139.999802
60 139.999802 -0.000060 -0.000119 0.056915 6.551484 -2.670377 139.999802
[Rope4_Seg06]
59 139.999924 0.000000 0.000060 0.897108 9.524029 -8.651962 139.999924
60 139.999924 0.000000 0.000060 0.645845 9.646845 -8.867004 139.999924
[Rope4_Seg07]
59 139.999802 0.000000 0.000000 1.064153 5.503523 -3.453472 139.999802
60 139.999802 0.000000 0.000000 0.945095 5.499939 -3.459188 139.999802
[Rope4_Seg08]
59 139.999924 0.000000 0.000119 -0.581744 3.700104 -2.432091 139.999924
60 139.999924 0.000000 0.000119 -0.661682 3.723137 -2.439782 139.999924
[Rope4_Seg09]
59 90.185791 0.000060 0.000060 -135.617828 2.228885 0.850567 90.185791
60 90.185791 0.000060 0.000060 -135.617828 2.228885 0.850567 90.185791
[L_rear_hand01]
59 101.696655 -8.392275 -7.654577 -34.454281 -18.946800 151.655121 102.329041
60 101.696655 -8.392275 -7.654577 -34.454281 -18.946800 151.655121 102.329041
[L_rear_hand02]
59 102.726799 -1.568258 5.773216 83.407906 30.330435 172.796509 102.900848
60 102.726799 -1.568258 5.773216 83.407906 30.330435 172.796509 102.900848
[L_rear_hand03]
59 104.552910 9.721220 -10.420293 -161.379868 -16.473232 -150.512238 105.519653
60 104.552910 9.721220 -10.420293 -161.379868 -16.473232 -150.512238 105.519653
